<svg width="108" height="104" viewBox="0 0 108 104" fill="none" xmlns="http://www.w3.org/2000/svg">
<path d="M41.2 36H60.4C65.7 36 70 31.7 70 26.4H73.2C80.26 26.4 86 20.66 86 13.6C86 6.53999 80.26 0.799988 73.2 0.799988H34C32.67 0.799988 31.6 1.86999 31.6 3.19999V26.4C31.6 31.7 35.9 36 41.2 36ZM73.2 7.19999C76.73 7.19999 79.6 10.07 79.6 13.6C79.6 17.13 76.73 20 73.2 20H70V7.19999H73.2ZM77.97 45.6H26.83C22.07 45.6 20.73 39.2 23.23 39.2H81.56C84.06 39.2 82.74 45.6 77.97 45.6Z" fill="black"/>
<path d="M12.5469 95.6062C18.4062 95.6062 22.5312 91.8406 22.7344 86.7937L22.75 86.6219H17.2344L17.2031 86.7937C16.8125 89.3094 15.0469 90.8562 12.5625 90.8562C9.42188 90.8562 7.42188 88.2625 7.42188 83.9031V83.8875C7.42188 79.575 9.40625 76.9969 12.5469 76.9969C15.1719 76.9969 16.8125 78.6531 17.1719 80.9969L17.2031 81.2312H22.7188V81.075C22.5156 76.0281 18.4375 72.2469 12.5469 72.2469C5.8125 72.2469 1.57812 76.5437 1.57812 83.9031V83.9187C1.57812 91.2781 5.78125 95.6062 12.5469 95.6062ZM33.2656 95.5594C38.625 95.5594 41.9688 92.325 41.9688 86.7V86.6687C41.9688 81.1219 38.5625 77.825 33.2656 77.825C27.9844 77.825 24.5625 81.1531 24.5625 86.6687V86.7C24.5625 92.3094 27.875 95.5594 33.2656 95.5594ZM33.2812 91.3562C31.3594 91.3562 30.1875 89.7 30.1875 86.7V86.6687C30.1875 83.7312 31.3906 82.0281 33.2656 82.0281C35.1406 82.0281 36.3594 83.7312 36.3594 86.6687V86.7C36.3594 89.6844 35.1719 91.3562 33.2812 91.3562ZM45.5 95.2H51.0469V82.2469H54.2031V78.1844H50.8906V77.45C50.8906 76.4656 51.5312 75.8875 53.0625 75.8875C53.4844 75.8875 53.9219 75.9031 54.2344 75.9656V72.5281C53.625 72.4031 52.5469 72.2937 51.5781 72.2937C47.125 72.2937 45.5 73.8406 45.5 77.2V78.1844H43.2344V82.2469H45.5V95.2ZM57.7812 95.2H63.3281V82.2469H66.4844V78.1844H63.1719V77.45C63.1719 76.4656 63.8125 75.8875 65.3438 75.8875C65.7656 75.8875 66.2031 75.9031 66.5156 75.9656V72.5281C65.9062 72.4031 64.8281 72.2937 63.8594 72.2937C59.4062 72.2937 57.7812 73.8406 57.7812 77.2V78.1844H55.5156V82.2469H57.7812V95.2ZM71.4844 76.3562C73.0938 76.3562 74.3125 75.1062 74.3125 73.6219C74.3125 72.1375 73.0938 70.9031 71.4844 70.9031C69.8906 70.9031 68.6562 72.1375 68.6562 73.6219C68.6562 75.1062 69.8906 76.3562 71.4844 76.3562ZM68.7188 95.2H74.25V78.1844H68.7188V95.2ZM85.0781 95.5594C90.5 95.5594 92.6406 92.3719 93.1562 90.0125L93.2031 89.825H88.2031L88.1875 89.9031C87.9375 90.6062 86.9688 91.6219 85.1875 91.6219C83.1719 91.6219 81.9219 90.2625 81.8594 87.9656H93.2969V86.3406C93.2969 81.1844 90.0312 77.825 84.8906 77.825C79.7188 77.825 76.4375 81.2156 76.4375 86.6844V86.7C76.4375 92.2 79.7031 95.5594 85.0781 95.5594ZM85.0156 81.7625C86.6406 81.7625 87.7969 82.7937 88.0781 84.7H81.9375C82.2188 82.825 83.3906 81.7625 85.0156 81.7625ZM95.4531 95.2H101V86.1687C101 83.7469 102.266 82.4656 104.594 82.4656C105.25 82.4656 105.891 82.5906 106.359 82.7781V78.0437C105.938 77.9031 105.453 77.825 104.922 77.825C102.922 77.825 101.578 79.0437 101.109 81.2H101V78.1844H95.4531V95.2Z" fill="black"/>
</svg>
